<svg width="24" height="24" viewBox="0 0 24 24" fill="none" xmlns="http://www.w3.org/2000/svg">
<g clip-path="url(#clip0_5507_169803)">
<path d="M20.4802 3.51401C19.3668 2.39824 18.044 1.51343 16.5877 0.910389C15.1315 0.307349 13.5704 -0.00203436 11.9942 1.00664e-05C5.36616 1.00664e-05 -0.00683594 5.37301 -0.00683594 12.001C-0.00683594 15.315 1.33716 18.316 3.50916 20.488C4.62249 21.6038 5.94529 22.4886 7.40158 23.0916C8.85787 23.6947 10.419 24.0041 11.9952 24.002C18.6232 24.002 23.9962 18.629 23.9962 12.001C23.9962 8.68701 22.6522 5.68601 20.4802 3.51401ZM18.9382 18.941C18.0274 19.8541 16.9452 20.5783 15.7536 21.0718C14.5621 21.5654 13.2848 21.8186 11.9952 21.817C6.57216 21.817 2.17616 17.421 2.17616 11.998C2.17455 10.7083 2.42779 9.43103 2.92135 8.23953C3.41491 7.04802 4.13905 5.96579 5.05216 5.05501C5.96272 4.14188 7.04478 3.41772 8.23612 2.92416C9.42747 2.4306 10.7046 2.17736 11.9942 2.17901C17.4162 2.17901 21.8122 6.57501 21.8122 11.997C21.8139 13.2866 21.5607 14.5637 21.0671 15.7551C20.5735 16.9464 19.8493 18.0285 18.9362 18.939L18.9382 18.941Z" fill="#A7CB19"/>
<path d="M13.5366 11.9966L17.3916 8.14157C17.5817 7.9343 17.6845 7.66159 17.6784 7.38037C17.6723 7.09915 17.5578 6.83115 17.3588 6.63232C17.1599 6.43348 16.8918 6.31918 16.6106 6.31326C16.3294 6.30735 16.0567 6.41028 15.8496 6.60057L15.8506 6.59957L11.9956 10.4546L8.14057 6.59957C7.93329 6.40941 7.66058 6.30666 7.37936 6.31276C7.09814 6.31885 6.83014 6.43333 6.63131 6.6323C6.43247 6.83126 6.31817 7.09933 6.31225 7.38056C6.30634 7.66178 6.40927 7.93443 6.59957 8.14157L6.59857 8.14057L10.4536 11.9956L6.59857 15.8506C6.4901 15.9501 6.4029 16.0705 6.3422 16.2046C6.2815 16.3387 6.24856 16.4837 6.24537 16.6309C6.24218 16.778 6.2688 16.9243 6.32363 17.0609C6.37846 17.1975 6.46037 17.3216 6.56441 17.4257C6.66846 17.5298 6.7925 17.6118 6.92907 17.6667C7.06563 17.7216 7.2119 17.7484 7.35906 17.7453C7.50622 17.7422 7.65123 17.7093 7.78537 17.6487C7.9195 17.5881 8.03999 17.501 8.13957 17.3926L8.14057 17.3916L11.9956 13.5366L15.8506 17.3916C15.9501 17.5 16.0705 17.5872 16.2046 17.6479C16.3387 17.7086 16.4837 17.7416 16.6308 17.7448C16.778 17.748 16.9243 17.7213 17.0609 17.6665C17.1975 17.6117 17.3216 17.5298 17.4257 17.4257C17.5298 17.3217 17.6118 17.1976 17.6667 17.0611C17.7216 16.9245 17.7483 16.7782 17.7453 16.6311C17.7422 16.4839 17.7093 16.3389 17.6487 16.2048C17.5881 16.0706 17.501 15.9502 17.3926 15.8506L17.3916 15.8496L13.5366 11.9966Z" fill="#A7CB19"/>
</g>
<defs>
<clipPath id="clip0_5507_169803">
<rect width="24" height="24" fill="white"/>
</clipPath>
</defs>
</svg>
