<svg width="120" height="120" viewBox="0 0 120 120" fill="none" xmlns="http://www.w3.org/2000/svg">
<g clip-path="url(#clip0_5136_166736)">
<path d="M60 120C93.1371 120 120 93.1371 120 60C120 26.8629 93.1371 0 60 0C26.8629 0 0 26.8629 0 60C0 93.1371 26.8629 120 60 120Z" fill="#A7CB19"/>
<path d="M59.7775 25.9454C79.0335 25.994 94.6406 41.6472 94.5848 60.8571C94.529 80.1131 78.8661 95.7275 59.6659 95.6644C40.3978 95.6038 24.8076 79.9627 24.8634 60.7455C24.9192 41.4774 40.5506 25.8945 59.7775 25.9454Z" fill="white"/>
<path d="M59.7187 31.5547C51.9778 31.5566 44.5532 34.627 39.072 40.0932C33.5908 45.5594 30.5 52.9755 30.4769 60.7165C30.3993 76.8671 43.5415 90.0432 59.7236 90.0432C67.4645 90.0433 74.8896 86.9737 80.3707 81.5075C85.8519 76.0414 88.9418 68.6248 88.963 60.8839C89.0334 44.7284 75.8912 31.5474 59.7187 31.5547Z" fill="#A7CB19"/>
<path d="M78.5861 50.4359L63.4861 65.1817C62.7582 63.9905 61.6689 63.1632 62.4719 61.4941C63.1027 60.184 62.0765 58.2649 60.6427 58.1315C58.8085 57.9592 58.5974 56.6346 57.8672 55.3415L78.3872 50.0234L78.5861 50.4359Z" fill="white"/>
<path d="M40.8398 71.1977L55.9812 56.3984C56.7527 57.6309 57.7377 58.5043 56.9516 60.1541C56.3354 61.4641 57.4077 63.3468 58.8464 63.4851C60.6805 63.6646 60.8819 64.9844 61.5345 66.2703L41.0461 71.5737C40.9806 71.4548 40.9102 71.3263 40.8398 71.1977Z" fill="white"/>
<path d="M60.4609 35.3274C60.4609 34.9201 60.1313 34.5898 59.7246 34.5898C59.3179 34.5898 58.9883 34.9201 58.9883 35.3274V37.4308C58.9883 37.8381 59.3179 38.1683 59.7246 38.1683C60.1313 38.1683 60.4609 37.8381 60.4609 37.4308V35.3274Z" fill="white"/>
<path d="M75.6838 44.9601C75.6145 44.8923 75.5594 44.8114 75.5218 44.722C75.4842 44.6326 75.4648 44.5367 75.4648 44.4397C75.4648 44.3428 75.4842 44.2468 75.5218 44.1574C75.5594 44.068 75.6145 43.9871 75.6838 43.9193L77.1735 42.4273C77.2413 42.3576 77.3224 42.3022 77.412 42.2643C77.5016 42.2265 77.5978 42.207 77.6951 42.207C77.7923 42.207 77.8886 42.2265 77.9782 42.2643C78.0678 42.3022 78.1489 42.3576 78.2167 42.4273C78.286 42.495 78.3411 42.576 78.3787 42.6654C78.4163 42.7547 78.4357 42.8507 78.4357 42.9477C78.4357 43.0446 78.4163 43.1406 78.3787 43.23C78.3411 43.3193 78.286 43.4003 78.2167 43.4681L76.7271 44.9553C76.6596 45.0253 76.5787 45.081 76.4893 45.1193C76.3999 45.1575 76.3037 45.1775 76.2065 45.1779C76.1092 45.1784 76.0129 45.1593 75.9231 45.1219C75.8333 45.0845 75.752 45.0295 75.6838 44.9601Z" fill="white"/>
<path d="M82.1641 61.0521C82.1641 60.859 82.2408 60.6739 82.3773 60.5374C82.5138 60.4009 82.6989 60.3242 82.8919 60.3242H84.9978C85.1908 60.3242 85.3759 60.4009 85.5124 60.5374C85.6489 60.6739 85.7256 60.859 85.7256 61.0521C85.7256 61.2451 85.6489 61.4302 85.5124 61.5667C85.3759 61.7032 85.1908 61.7799 84.9978 61.7799H82.8919C82.6989 61.7799 82.5138 61.7032 82.3773 61.5667C82.2408 61.4302 82.1641 61.2451 82.1641 61.0521Z" fill="white"/>
<path d="M75.3714 77.0081C75.4392 76.9387 75.5201 76.8836 75.6095 76.846C75.6988 76.8084 75.7948 76.7891 75.8918 76.7891C75.9887 76.7891 76.0847 76.8084 76.174 76.846C76.2634 76.8836 76.3444 76.9387 76.4122 77.0081L77.9018 78.4953C78.0396 78.6339 78.1169 78.8214 78.1169 79.0169C78.1169 79.2123 78.0396 79.3998 77.9018 79.5385C77.7632 79.6763 77.5756 79.7536 77.3802 79.7536C77.1847 79.7536 76.9972 79.6763 76.8586 79.5385L75.3714 78.0513C75.2336 77.9126 75.1562 77.7251 75.1562 77.5297C75.1562 77.3342 75.2336 77.1467 75.3714 77.0081Z" fill="white"/>
<path d="M59.2786 83.4922C59.4707 83.4953 59.654 83.573 59.7899 83.7088C59.9257 83.8446 60.0034 84.028 60.0065 84.22V86.3429C60.0034 86.5349 59.9257 86.7182 59.7899 86.8541C59.654 86.9899 59.4707 87.0676 59.2786 87.0707C59.0866 87.0676 58.9033 86.9899 58.7675 86.8541C58.6316 86.7182 58.5539 86.5349 58.5508 86.3429V84.2394C58.5489 84.044 58.6243 83.8557 58.7607 83.7157C58.897 83.5757 59.0832 83.4954 59.2786 83.4922Z" fill="white"/>
<path d="M43.3198 76.6955C43.4576 76.8342 43.5349 77.0217 43.5349 77.2172C43.5349 77.4126 43.4576 77.6001 43.3198 77.7388L41.8326 79.226C41.6939 79.3638 41.5064 79.4411 41.3109 79.4411C41.1155 79.4411 40.928 79.3638 40.7893 79.226C40.6516 79.0873 40.5742 78.8998 40.5742 78.7044C40.5742 78.5089 40.6516 78.3214 40.7893 78.1828L42.279 76.6955C42.3467 76.6262 42.4277 76.5711 42.5171 76.5335C42.6064 76.4959 42.7024 76.4766 42.7994 76.4766C42.8963 76.4766 42.9923 76.4959 43.0817 76.5335C43.171 76.5711 43.252 76.6262 43.3198 76.6955Z" fill="white"/>
<path d="M36.8402 60.603C36.8402 60.7961 36.7635 60.9812 36.6271 61.1177C36.4906 61.2542 36.3054 61.3309 36.1124 61.3309H33.9896C33.7965 61.3309 33.6114 61.2542 33.4749 61.1177C33.3384 60.9812 33.2617 60.7961 33.2617 60.603C33.2617 60.41 33.3384 60.2249 33.4749 60.0884C33.6114 59.9519 33.7965 59.8752 33.9896 59.8752H36.0954C36.1924 59.8729 36.2889 59.8901 36.3792 59.9256C36.4694 59.9612 36.5517 60.0145 36.6211 60.0823C36.6905 60.1501 36.7456 60.2311 36.7832 60.3205C36.8209 60.4099 36.8402 60.506 36.8402 60.603Z" fill="white"/>
<path d="M43.6361 44.6452C43.5684 44.7145 43.4874 44.7696 43.398 44.8072C43.3087 44.8448 43.2127 44.8642 43.1157 44.8642C43.0188 44.8642 42.9228 44.8448 42.8334 44.8072C42.7441 44.7696 42.6631 44.7145 42.5953 44.6452L41.1057 43.1556C41.0364 43.0878 40.9813 43.0068 40.9437 42.9175C40.9061 42.8281 40.8867 42.7321 40.8867 42.6352C40.8867 42.5382 40.9061 42.4422 40.9437 42.3529C40.9813 42.2635 41.0364 42.1825 41.1057 42.1148C41.1735 42.0451 41.2546 41.9897 41.3442 41.9518C41.4338 41.914 41.5301 41.8945 41.6273 41.8945C41.7246 41.8945 41.8208 41.914 41.9104 41.9518C42 41.9897 42.0811 42.0451 42.1489 42.1148L43.6361 43.602C43.7058 43.6698 43.7612 43.7509 43.7991 43.8405C43.8369 43.9301 43.8564 44.0263 43.8564 44.1236C43.8564 44.2208 43.8369 44.3171 43.7991 44.4067C43.7612 44.4963 43.7058 44.5774 43.6361 44.6452Z" fill="white"/>
</g>
<defs>
<clipPath id="clip0_5136_166736">
<rect width="120" height="120" fill="white"/>
</clipPath>
</defs>
</svg>
