<svg width="120" height="120" viewBox="0 0 120 120" fill="none" xmlns="http://www.w3.org/2000/svg">
<circle cx="60" cy="60" r="60" fill="#A7CB19"/>
<path d="M36.1624 74.4466C38.347 74.4428 40.4814 73.7915 42.2959 72.5751C44.1105 71.3586 45.5237 69.6316 46.3571 67.6122C47.1905 65.5929 47.4066 63.3718 46.9781 61.2297C46.5496 59.0876 45.4957 57.1206 43.9496 55.5772C42.4035 54.0339 40.4347 52.9834 38.2919 52.5586C36.149 52.1338 33.9283 52.3537 31.9104 53.1906C29.8925 54.0275 28.168 55.4437 26.9547 57.2603C25.7414 59.077 25.0938 61.2125 25.0938 63.3971C25.1039 66.3278 26.274 69.1352 28.3481 71.2058C30.4222 73.2763 33.2317 74.4415 36.1624 74.4466ZM30.4075 57.6421C31.3518 56.6927 32.5158 55.9912 33.7963 55.5997C35.0768 55.2082 36.4342 55.1389 37.7479 55.398C39.0616 55.657 40.2911 56.2364 41.3271 57.0847C42.3632 57.933 43.1738 59.0238 43.687 60.2606C44.2002 61.4974 44.4001 62.8418 44.269 64.1744C44.1379 65.507 43.6797 66.7866 42.9353 67.8997C42.1909 69.0127 41.1833 69.9247 40.0018 70.5548C38.8202 71.1849 37.5015 71.5136 36.1624 71.5116C34.5567 71.5092 32.9875 71.0316 31.6527 70.1389C30.3179 69.2462 29.2772 67.9783 28.6618 66.4951C28.0464 65.0119 27.8837 63.3798 28.1944 61.8044C28.505 60.2289 29.2751 58.7807 30.4075 57.6421Z" fill="white"/>
<path d="M50.1071 89.9411C50.1071 89.5574 50.3565 80.2152 44.4864 74.8248C44.219 74.5964 43.8789 74.4709 43.5273 74.4709C43.1757 74.4709 42.8356 74.5964 42.5681 74.8248C42.5681 74.8248 36.0075 79.7548 29.9648 74.8248C29.6992 74.5927 29.3584 74.4648 29.0057 74.4648C28.6529 74.4648 28.3122 74.5927 28.0465 74.8248C26.0812 76.8094 24.5338 79.1681 23.4959 81.7612C22.458 84.3543 21.9506 87.1292 22.0038 89.9219C22.0032 90.3091 22.1548 90.6811 22.4259 90.9577C22.5629 91.0986 22.727 91.2103 22.9083 91.2861C23.0896 91.3619 23.2844 91.4004 23.4809 91.399H48.5723C48.7695 91.4067 48.9662 91.3748 49.1509 91.3052C49.3355 91.2356 49.5044 91.1298 49.6474 90.9939C49.7905 90.858 49.9048 90.6948 49.9838 90.514C50.0627 90.3331 50.1047 90.1384 50.1071 89.9411ZM25.169 88.4447C25.3949 84.5563 26.8529 80.8408 29.3317 77.8365C31.4295 79.1734 33.8652 79.8836 36.3527 79.8836C38.8402 79.8836 41.2761 79.1734 43.3738 77.8365C45.7267 80.8939 47.0678 84.6087 47.2104 88.4639L25.169 88.4447Z" fill="white"/>
<path d="M77.2187 55.5696C75.6691 57.1139 74.6127 59.0834 74.1835 61.2286C73.7543 63.3737 73.9715 65.598 74.8077 67.6196C75.6438 69.6412 77.0613 71.3691 78.8805 72.5843C80.6996 73.7996 82.8384 74.4474 85.0261 74.4459C86.8483 74.449 88.6431 74.0022 90.2512 73.1452C91.8593 72.2881 93.231 71.0474 94.2444 69.533C95.2578 68.0186 95.8816 66.2773 96.0605 64.4639C96.2394 62.6505 95.9679 60.821 95.2699 59.1378C94.572 57.4545 93.4692 55.9697 92.0596 54.8149C90.65 53.6602 88.9772 52.8713 87.1895 52.5183C85.4018 52.1653 83.5546 52.259 81.8119 52.7913C80.0692 53.3237 78.4848 54.278 77.1995 55.5696H77.2187ZM93.1598 63.3772C93.1624 64.4444 92.9543 65.5016 92.5476 66.4883C92.1409 67.475 91.5437 68.3719 90.7899 69.1274C90.0362 69.8829 89.1408 70.4823 88.1551 70.8913C87.1693 71.3003 86.1125 71.5109 85.0453 71.5109C83.4354 71.5177 81.8599 71.0455 80.5192 70.1544C79.1784 69.2632 78.1331 67.9933 77.5161 66.5064C76.8991 65.0194 76.7383 63.3825 77.0543 61.8039C77.3703 60.2253 78.1486 58.7764 79.2904 57.6414C80.4253 56.4997 81.8742 55.7213 83.4528 55.4054C85.0314 55.0894 86.6683 55.2501 88.1553 55.8671C89.6423 56.4841 90.9121 57.5295 91.8033 58.8702C92.6944 60.211 93.1667 61.7865 93.1598 63.3964V63.3772Z" fill="white"/>
<path d="M93.4013 74.8248C93.1357 74.5927 92.7949 74.4648 92.4422 74.4648C92.0894 74.4648 91.7486 74.5927 91.483 74.8248C91.483 74.8248 84.9224 79.7548 78.8797 74.8248C78.614 74.5927 78.2733 74.4648 77.9205 74.4648C77.5678 74.4648 77.227 74.5927 76.9614 74.8248C74.9916 76.8062 73.4413 79.1643 72.403 81.7581C71.3648 84.352 70.86 87.1285 70.9186 89.9219C70.9181 90.3091 71.0697 90.6811 71.3407 90.9577C71.4742 91.098 71.6349 91.2095 71.8131 91.2854C71.9912 91.3613 72.183 91.4 72.3766 91.399H97.5448C97.9254 91.3946 98.29 91.2453 98.5644 90.9816C98.8388 90.7179 99.0024 90.3594 99.0219 89.9793C99.0411 89.5573 99.2905 80.2152 93.4013 74.8248ZM74.0071 88.4447C74.2511 84.5603 75.707 80.8502 78.1699 77.8365C80.2705 79.1751 82.7096 79.8861 85.2005 79.8861C87.6913 79.8861 90.1304 79.1751 92.231 77.8365C94.576 80.8982 95.9162 84.6104 96.0677 88.4639L74.0071 88.4447Z" fill="white"/>
<path d="M41.2656 48.219C41.2656 49.2874 41.69 50.312 42.4455 51.0675C43.201 51.823 44.2256 52.2475 45.294 52.2475H56.1325L55.8447 56.0841C55.8227 56.3121 55.8741 56.5411 55.9914 56.7378C56.1088 56.9345 56.2859 57.0886 56.497 57.1775C56.6362 57.2065 56.7798 57.2065 56.919 57.1775C57.0713 57.1762 57.2217 57.1431 57.3604 57.0804C57.4991 57.0176 57.6232 56.9266 57.7248 56.8131L61.7916 52.1324H75.2197C76.2882 52.1324 77.3128 51.7079 78.0683 50.9524C78.8238 50.1969 79.2481 49.1723 79.2481 48.1039V32.0284C79.2481 30.96 78.8238 29.9353 78.0683 29.1799C77.3128 28.4244 76.2882 28 75.2197 28H45.294C44.2256 28 43.201 28.4244 42.4455 29.1799C41.69 29.9353 41.2656 30.96 41.2656 32.0284V48.219ZM43.4333 32.1436C43.4333 31.6348 43.6355 31.1468 43.9952 30.7871C44.355 30.4273 44.8429 30.2253 45.3516 30.2253H75.2005C75.7093 30.2253 76.1972 30.4273 76.557 30.7871C76.9167 31.1468 77.1189 31.6348 77.1189 32.1436V48.219C77.1189 48.7277 76.9167 49.2157 76.557 49.5755C76.1972 49.9352 75.7093 50.1373 75.2005 50.1373H61.3312C61.177 50.1385 61.025 50.1735 60.8858 50.2398C60.7466 50.3061 60.6235 50.402 60.5254 50.5209L58.281 53.0915L58.4153 51.3075C58.4304 51.1589 58.4143 51.0087 58.368 50.8667C58.3218 50.7247 58.2464 50.5939 58.1467 50.4827C57.9342 50.2658 57.6447 50.1416 57.3411 50.1373H45.3516C44.8429 50.1373 44.355 49.9352 43.9952 49.5755C43.6355 49.2157 43.4333 48.7277 43.4333 48.219V32.1436Z" fill="white"/>
<path d="M63.0576 46.9397C63.1435 46.9797 63.2373 47.0002 63.3322 47C63.4879 47.0002 63.6389 46.947 63.7593 46.8493L70.7661 40.9995C70.8404 40.9382 70.9 40.8613 70.9405 40.7744C70.9809 40.6874 71.0012 40.5926 70.9999 40.497C70.9998 40.4015 70.9789 40.3071 70.9386 40.2204C70.8982 40.1337 70.8393 40.0566 70.7661 39.9944L63.7593 34.1547C63.6628 34.074 63.5449 34.0223 63.4196 34.0058C63.2943 33.9892 63.1668 34.0085 63.0523 34.0614C62.9378 34.1143 62.841 34.1985 62.7734 34.3041C62.7059 34.4098 62.6704 34.5323 62.6711 34.6573V36.4866H50.6712C50.4949 36.4865 50.3257 36.5551 50.2001 36.6773C50.0745 36.7995 50.0027 36.9657 50 37.1399V43.8641C50.0027 44.0382 50.0745 44.2044 50.2001 44.3267C50.3257 44.4489 50.4949 44.5174 50.6712 44.5174H62.6711V46.3467C62.6726 46.4715 62.7097 46.5933 62.778 46.6982C62.8464 46.8031 62.9433 46.8868 63.0576 46.9397ZM51.3322 43.2007V37.7932H63.3322C63.5075 37.7932 63.6756 37.7244 63.7996 37.6019C63.9235 37.4793 63.9932 37.3131 63.9932 37.1399V36.0644L69.3118 40.497L63.9932 44.9295V43.8641C63.9932 43.6898 63.9239 43.5226 63.8002 43.3985C63.6765 43.2744 63.5084 43.2033 63.3322 43.2007H51.3322Z" fill="white"/>
<path d="M50.8516 37.5775L67.5 37.5L70 41L50.8516 43.589V37.5775Z" fill="white"/>
<path d="M63.7332 39.2951H69.7447L67 43.5H52L63.7332 39.2951Z" fill="white"/>
<path d="M64 36L66 37.5L65.4508 39.2951H59.4393L64 36Z" fill="white"/>
<path d="M59.4393 41.8714H65.4508L66.5 44L64 45L59.4393 41.8714Z" fill="white"/>
</svg>
