<svg width="120" height="120" viewBox="0 0 120 120" fill="none" xmlns="http://www.w3.org/2000/svg">
<g clip-path="url(#clip0_5136_166750)">
<path d="M60 120C93.1371 120 120 93.1371 120 60C120 26.8629 93.1371 0 60 0C26.8629 0 0 26.8629 0 60C0 93.1371 26.8629 120 60 120Z" fill="#A7CB19"/>
<path d="M69.4609 22.4864C69.4609 22.6392 69.4609 22.792 69.4488 22.9449C69.4366 23.0977 69.4294 23.2481 69.4148 23.3961C69.3906 23.6218 69.359 23.8425 69.3202 24.0633C69.2813 24.2841 69.2256 24.5364 69.1649 24.7693C69.0501 25.211 68.9016 25.6433 68.7209 26.0624L68.6408 26.242C68.5438 26.4482 68.4395 26.652 68.3279 26.8509L68.226 27.028C67.8093 27.7266 67.3001 28.3656 66.7121 28.9277L66.5423 29.0853C66.4452 29.1727 66.3458 29.26 66.2439 29.345L66.0401 29.5075C65.8896 29.6239 65.7344 29.7501 65.5767 29.8472L65.5063 29.8933C65.2977 30.034 65.0818 30.165 64.8586 30.2887C64.6354 30.4124 64.4534 30.5022 64.2423 30.5968L64.2059 30.6138C63.7877 30.8013 63.3553 30.9554 62.9128 31.0747C62.8207 31.1014 62.7236 31.1257 62.6289 31.1475C62.176 31.2556 61.7152 31.3278 61.2509 31.3635C61.1005 31.3635 60.9501 31.3829 60.7973 31.3853H60.3363C60.1834 31.3853 60.0331 31.3732 59.8826 31.3635C59.4183 31.3278 58.9575 31.2556 58.5046 31.1475C58.4075 31.1249 58.3129 31.1006 58.2207 31.0747C57.7782 30.9554 57.3458 30.8013 56.9276 30.6138L56.8888 30.5968C56.702 30.5119 56.5176 30.4197 56.3381 30.3227C56.0955 30.1892 55.8529 30.0461 55.6272 29.8933L55.5569 29.8472C55.3992 29.738 55.2439 29.6239 55.0935 29.5075L54.8897 29.345C54.7878 29.26 54.6883 29.1727 54.5913 29.0853C54.4942 28.998 54.3754 28.884 54.271 28.7821C53.7455 28.2563 53.2875 27.6671 52.9076 27.028L52.8057 26.8509C52.6941 26.652 52.5898 26.4482 52.4927 26.242L52.4127 26.0624C52.2286 25.6436 52.0769 25.2113 51.9589 24.7693C51.8983 24.5267 51.8449 24.3011 51.8037 24.0633C51.7625 23.8256 51.7333 23.6218 51.7115 23.3961C51.6945 23.2481 51.6824 23.0953 51.6751 22.9449C51.6678 22.7944 51.6751 22.6392 51.6751 22.4864C51.6751 22.3335 51.7042 22.1807 51.7115 22.0278C51.7115 21.9357 51.7576 21.8434 51.7576 21.7512C51.7576 21.693 51.7406 21.6348 51.7455 21.579C51.7503 21.5232 51.7455 21.4674 51.7455 21.4116C51.7649 21.2442 51.7843 21.0768 51.8134 20.9118C51.8538 20.6741 51.9048 20.4387 51.9662 20.2058C52.0812 19.7632 52.2322 19.3307 52.4175 18.9127C52.4296 18.8812 52.4418 18.852 52.4563 18.8229C52.4709 18.7938 52.483 18.7623 52.4975 18.7332C52.5922 18.527 52.6965 18.3232 52.8081 18.1242L52.91 17.9471C53.3267 17.2486 53.836 16.6095 54.4239 16.0475L54.5937 15.8898C54.6908 15.8024 54.7902 15.7151 54.8921 15.6302L55.0959 15.4676C55.2464 15.3512 55.4016 15.225 55.5593 15.128L55.6297 15.0819C56.0304 14.8135 56.4523 14.5782 56.8912 14.3783L56.93 14.3613C57.3483 14.1739 57.7807 14.0198 58.2232 13.9004C58.3154 13.8729 58.41 13.8486 58.507 13.8276C58.96 13.7195 59.4208 13.6473 59.8851 13.6116C60.0355 13.6116 60.1859 13.5923 60.3387 13.5898H60.7997C60.9526 13.5898 61.1029 13.6019 61.2534 13.6116C61.7177 13.6473 62.1784 13.7195 62.6314 13.8276C62.726 13.8494 62.8231 13.8737 62.9153 13.9004C63.3578 14.0198 63.7901 14.1739 64.2083 14.3613L64.2448 14.3783C64.6848 14.5777 65.1075 14.813 65.5088 15.0819L65.5791 15.128C65.7368 15.2371 65.8921 15.3512 66.0425 15.4676L66.2463 15.6302C66.3482 15.7151 66.4477 15.8024 66.5447 15.8898C66.6029 15.9407 66.6587 15.9941 66.7121 16.0475C67.3019 16.6084 67.8121 17.2476 68.2284 17.9471L68.3303 18.1242C68.4419 18.3232 68.5462 18.527 68.6433 18.7332L68.7234 18.9127C68.9074 19.3315 69.059 19.7638 69.177 20.2058C69.2377 20.4484 69.2886 20.6741 69.3323 20.9118C69.376 21.1496 69.4026 21.3534 69.4269 21.579C69.4269 21.6493 69.4269 21.7172 69.4439 21.7876C69.4609 21.858 69.456 21.9502 69.4609 22.0302C69.4488 22.1806 69.4609 22.3335 69.4609 22.4864Z" fill="white"/>
<path d="M51.5234 21.6641L51.5477 21.6761C51.591 21.7031 51.6365 21.7267 51.6835 21.7465L51.6544 21.7271C51.6156 21.6955 51.5647 21.6956 51.5234 21.6641Z" fill="white"/>
<path d="M51.5234 21.6641C51.5647 21.6835 51.6156 21.7052 51.6544 21.7271L51.5477 21.6761L51.5234 21.6641Z" fill="white"/>
<path d="M75.2743 39.9069V49.1261C75.2743 49.3153 75.2743 49.3517 75.102 49.3517H46.0178C45.8359 49.3517 45.6758 49.3153 45.6758 49.1261V39.9069C45.6758 39.7589 45.6758 39.6109 45.6758 39.4653C45.7696 37.3542 46.6036 35.3436 48.0315 33.7859L48.1528 33.6548C48.8367 32.939 49.6395 32.3472 50.5256 31.9056L50.6857 31.828C50.93 31.7122 51.1802 31.6094 51.4354 31.5199L51.6052 31.4616C51.8356 31.3864 52.0662 31.3209 52.3039 31.2651C52.5934 31.5417 52.8943 31.8029 53.2064 32.0487C54.0046 32.6743 54.8774 33.1983 55.8048 33.6088C55.9794 33.6864 56.1565 33.7591 56.3312 33.8271C58.449 34.639 60.7551 34.8268 62.9763 34.3681C63.0722 34.3396 63.1705 34.3201 63.2699 34.3099H63.7115C64.0972 34.3099 64.4781 34.009 64.8517 33.8586C64.9997 33.8004 65.1477 33.6694 65.2957 33.616C66.0235 33.2844 66.7105 32.8701 67.3433 32.3811C67.4161 32.3811 67.4865 32.3156 67.5568 32.2647C67.9825 31.9557 68.3877 31.6193 68.7699 31.2578C72.409 32.1069 75.1263 35.4501 75.3203 39.4678C75.3203 39.6036 75.2743 39.7589 75.2743 39.9069Z" fill="white"/>
<path d="M44.0537 64.4767C44.0537 64.632 44.0537 64.7848 44.0416 64.9352C44.0294 65.0856 44.0221 65.2385 44.0076 65.3889C43.9833 65.6121 43.9518 65.8353 43.913 66.0537C43.8742 66.272 43.8184 66.5389 43.7577 66.7596C43.6394 67.2023 43.4877 67.6354 43.304 68.0552L43.224 68.2323C43.1269 68.4409 43.0226 68.6423 42.911 68.8413L42.8091 69.0184C42.3936 69.7178 41.8843 70.3569 41.2952 70.918C41.2394 70.9713 41.1836 71.0247 41.1254 71.0757C41.0284 71.1655 40.9289 71.2504 40.827 71.3353L40.6232 71.4978C40.4728 71.6167 40.3175 71.7404 40.1598 71.8375L40.0919 71.8835C39.8808 72.0243 39.6649 72.1553 39.4417 72.279C39.2185 72.4028 39.0365 72.4925 38.8279 72.5871L38.7891 72.6041C38.3709 72.7924 37.9385 72.9473 37.496 73.0675L37.2121 73.1403C36.7589 73.2464 36.2981 73.3177 35.834 73.3538C35.6836 73.3538 35.5332 73.3732 35.3804 73.3781H34.9194C34.7666 73.3781 34.6162 73.3659 34.4658 73.3538C34.0017 73.3177 33.541 73.2464 33.0877 73.1403L32.8038 73.0675C32.3613 72.9473 31.9289 72.7924 31.5108 72.6041L31.4743 72.5871C31.2851 72.5022 31.1031 72.4124 30.9212 72.313C30.6771 72.182 30.4398 72.0387 30.2104 71.8835L30.14 71.8375C29.9823 71.7307 29.827 71.6167 29.6766 71.4978L29.4728 71.3353C29.3709 71.2504 29.2714 71.1655 29.1744 71.0757C29.0774 70.9859 28.9585 70.8767 28.8541 70.7724C28.3286 70.2466 27.8706 69.6574 27.4907 69.0184L27.3888 68.8413C27.2772 68.6423 27.1729 68.4409 27.0758 68.2323L26.9958 68.0552C26.8121 67.6354 26.6604 67.2023 26.5421 66.7596C26.4814 66.517 26.4281 66.2914 26.3868 66.0537C26.3456 65.8159 26.3165 65.6121 26.2946 65.3889C26.2777 65.2385 26.2679 65.088 26.2582 64.9352C26.2485 64.7824 26.2582 64.632 26.2582 64.4767C26.2582 64.3214 26.2582 64.171 26.2582 64.0206C26.2582 63.9259 26.2704 63.8338 26.2704 63.7416C26.2704 63.6858 26.2874 63.6276 26.2922 63.5693C26.2971 63.5111 26.3067 63.4577 26.314 63.4019C26.3358 63.2345 26.3601 63.0695 26.3892 62.9167C26.4329 62.6741 26.4863 62.4315 26.5469 62.2107C26.6649 61.7679 26.8166 61.3348 27.0006 60.9151L27.0394 60.8254C27.054 60.7963 27.0686 60.7671 27.0807 60.738C27.1777 60.5294 27.282 60.3256 27.3936 60.1291L27.4956 59.952C27.911 59.2526 28.4204 58.6134 29.0094 58.0524C29.0652 57.999 29.121 57.9456 29.1793 57.8946C29.2763 57.8049 29.3758 57.7175 29.4777 57.635L29.6815 57.4725C29.8319 57.3536 29.9871 57.2299 30.1448 57.1329L30.2152 57.0867C30.6159 56.8169 31.0387 56.5816 31.4792 56.3832L31.5156 56.3662C31.936 56.1767 32.3709 56.021 32.816 55.9004L33.0998 55.8276C33.5526 55.7192 34.0135 55.6478 34.4779 55.6141C34.6283 55.602 34.7787 55.5947 34.9315 55.5898H35.3925C35.5454 55.5898 35.6958 55.5899 35.8462 55.6141C36.3106 55.6478 36.7714 55.7192 37.2242 55.8276L37.5081 55.9004C37.9507 56.0206 38.383 56.1755 38.8012 56.3638L38.84 56.3808C39.28 56.5802 39.7027 56.8155 40.104 57.0843L40.172 57.1304C40.3297 57.2372 40.4849 57.3512 40.6353 57.4701L40.8391 57.6326C40.941 57.7151 41.0405 57.8024 41.1375 57.8922C41.1958 57.9432 41.2516 57.9941 41.3049 58.0475C41.8943 58.6098 42.4044 59.2497 42.8212 59.9495L42.9231 60.1266C43.0347 60.3232 43.1391 60.527 43.2361 60.7356L43.3162 60.9127C43.5002 61.3324 43.6518 61.7655 43.7698 62.2083C43.8305 62.4509 43.8839 62.6741 43.9251 62.9142C43.9664 63.1544 43.9955 63.3558 44.0197 63.579C44.0197 63.6493 44.0197 63.7197 44.0367 63.7901C44.0537 63.8604 44.0489 63.9502 44.0537 64.0327C44.0489 64.171 44.0537 64.3239 44.0537 64.4767Z" fill="white"/>
<path d="M26.1055 63.6562L26.1297 63.6708C26.1732 63.6969 26.2186 63.7196 26.2656 63.7388L26.2364 63.7218C26.2073 63.6999 26.1564 63.6781 26.1151 63.666L26.1055 63.6562Z" fill="white"/>
<path d="M26.1133 63.6641C26.1545 63.6859 26.2055 63.7077 26.2443 63.7296C26.2097 63.7107 26.174 63.6937 26.1376 63.6786L26.1133 63.6641Z" fill="white"/>
<path d="M50.0403 81.9028V91.122C50.0403 91.3113 49.8729 91.3234 49.691 91.3234H20.6068C20.4248 91.3234 20.1992 91.3113 20.1992 91.122V81.9028C20.1992 81.7549 20.2235 81.6069 20.2307 81.4613C20.332 79.3475 21.1727 77.3364 22.6059 75.7794L22.7345 75.6483C23.4197 74.933 24.2232 74.3413 25.1097 73.8991L25.2722 73.8215C25.5148 73.7075 25.7574 73.6032 26.0219 73.5134L26.1941 73.4552C26.4222 73.3808 26.6551 73.3153 26.8929 73.2587C27.1799 73.5362 27.4811 73.7985 27.7954 74.0447C28.5942 74.6686 29.4669 75.1917 30.3937 75.6023C30.5684 75.6799 30.7455 75.7527 30.9202 75.8206C33.0369 76.6382 35.3456 76.8228 37.5653 76.3519C37.6612 76.3182 37.7604 76.2946 37.8613 76.2816H38.3028C38.6862 76.2816 39.0671 75.9904 39.4407 75.8424C39.5887 75.7842 39.7366 75.646 39.8846 75.5805C40.6125 75.2471 41.2996 74.8311 41.9323 74.3407C42.0122 74.3278 42.0864 74.2915 42.1458 74.2364C42.5714 73.929 42.9766 73.5943 43.3588 73.2344C46.998 74.0859 49.8026 77.4316 49.9918 81.4492C49.9967 81.5948 50.0403 81.7549 50.0403 81.9028Z" fill="white"/>
<path d="M94.1508 64.3301C94.1508 64.4829 94.1508 64.6358 94.1508 64.7887C94.1508 64.9415 94.1315 65.0895 94.1169 65.2399C94.0951 65.4655 94.0635 65.6863 94.0246 65.9046C93.9858 66.123 93.9276 66.3898 93.867 66.613C93.7498 67.055 93.599 67.4873 93.4157 67.9062C93.3891 67.9668 93.3624 68.0251 93.3333 68.0857C93.2363 68.2919 93.1343 68.4957 93.0203 68.6947C92.988 68.7529 92.954 68.8111 92.9184 68.8693C92.504 69.5695 91.9954 70.2096 91.4069 70.7714L91.2371 70.9291C91.1401 71.0164 91.0381 71.1038 90.9362 71.1887L90.7349 71.3512C90.5845 71.4677 90.4292 71.5817 90.269 71.6885L90.2012 71.737C89.9901 71.8753 89.7742 72.0087 89.5534 72.13C89.3326 72.2513 89.1458 72.3435 88.9372 72.4406L88.8983 72.4576C88.4805 72.6439 88.049 72.798 87.6077 72.9185C87.5122 72.9444 87.4176 72.9686 87.3238 72.9913C86.8709 73.0993 86.4101 73.1716 85.9458 73.2072C85.7953 73.2072 85.6425 73.2266 85.4897 73.229H85.0311C84.8783 73.229 84.7255 73.2291 84.575 73.2072C84.1108 73.1714 83.65 73.0992 83.197 72.9913C83.1015 72.9703 83.0069 72.946 82.9131 72.9185C82.4719 72.7976 82.0405 72.6436 81.6225 72.4576L81.5836 72.4406C81.3968 72.3532 81.2124 72.2635 81.0329 72.1664C80.7871 72.0322 80.5493 71.889 80.3196 71.737L80.2516 71.6885C80.0915 71.5817 79.9387 71.4677 79.7858 71.3512L79.5845 71.1887C79.4826 71.1038 79.3832 71.0164 79.2837 70.9291L78.9659 70.6258C78.4397 70.0997 77.9816 69.5096 77.6024 68.8693L77.5005 68.6947C77.3889 68.4957 77.2845 68.2919 77.1875 68.0857L77.1074 67.9062C76.9223 67.4878 76.7707 67.0554 76.6538 66.613C76.5932 66.3704 76.5397 66.1448 76.496 65.9046C76.4524 65.6645 76.4281 65.4655 76.4039 65.2399C76.3893 65.0895 76.3772 64.9391 76.3699 64.7887C76.3626 64.6383 76.3699 64.4829 76.3699 64.3301C76.3699 64.1773 76.3068 64.0244 76.3141 63.8716C76.3141 63.7794 76.2656 63.6872 76.2656 63.5926C76.2656 63.5368 76.3432 63.4785 76.3481 63.4227C76.3529 63.3669 76.3942 63.3087 76.4015 63.2529C76.4209 63.0855 76.4646 62.9205 76.4937 62.7556C76.5349 62.513 76.5956 62.2825 76.6587 62.0496C76.7764 61.6072 76.9289 61.1748 77.1148 60.7565C77.1269 60.7249 77.1439 60.6958 77.156 60.6667L77.1997 60.5769C77.2943 60.3707 77.4011 60.1669 77.5127 59.968C77.5442 59.9097 77.5806 59.8491 77.6146 59.7909C78.0306 59.0925 78.539 58.4535 79.126 57.8912L79.2958 57.7335C79.3952 57.6438 79.4948 57.5588 79.5967 57.4739C79.6986 57.389 79.7301 57.3648 79.798 57.3114C79.9509 57.1925 80.1037 57.0809 80.2638 56.9717L80.3317 56.9256C80.7336 56.6577 81.1563 56.4225 81.5957 56.2221L81.6346 56.2051C82.0517 56.0169 82.4833 55.8628 82.9252 55.7441C83.0206 55.7183 83.1154 55.694 83.2092 55.6713C83.6622 55.5635 84.1228 55.4912 84.5871 55.4554C84.7375 55.4554 84.8904 55.436 85.0432 55.4336H85.2737H85.5018C85.6546 55.4336 85.8074 55.4336 85.9578 55.4554C86.4221 55.4911 86.883 55.5633 87.3359 55.6713C87.4313 55.6924 87.5259 55.7166 87.6198 55.7441C88.0618 55.8624 88.4935 56.0166 88.9105 56.2051L88.9493 56.2221C89.3887 56.4225 89.8114 56.6577 90.2132 56.9256L90.2812 56.9717C90.4414 57.0809 90.5966 57.1925 90.747 57.3114C90.815 57.3648 90.8829 57.4181 90.9484 57.4739C91.0139 57.5297 91.1521 57.6438 91.2492 57.7335L91.4166 57.8888C92.0051 58.4512 92.5145 59.0911 92.9305 59.7909C92.9669 59.8491 93.0009 59.9097 93.0324 59.968C93.1464 60.1669 93.2483 60.3707 93.3454 60.5769C93.3745 60.6352 93.4011 60.6958 93.4278 60.7565C93.611 61.1753 93.762 61.6077 93.8792 62.0496C93.9398 62.2922 93.9932 62.5178 94.0368 62.7556C94.0805 62.9933 94.1072 63.1971 94.129 63.4227C94.129 63.4907 94.1436 63.5611 94.1484 63.6314C94.1533 63.7018 94.1606 63.794 94.163 63.874C94.1485 64.0244 94.1508 64.1773 94.1508 64.3301Z" fill="white"/>
<path d="M76.2148 63.5049C76.2229 63.5036 76.2311 63.5036 76.2391 63.5049C76.283 63.5318 76.3292 63.5546 76.3774 63.5728L76.3484 63.5558C76.3095 63.5461 76.2585 63.5243 76.2148 63.5049Z" fill="white"/>
<path d="M76.2148 63.5039C76.2585 63.5233 76.3095 63.5452 76.3484 63.567L76.2391 63.516C76.2318 63.5105 76.2236 63.5064 76.2148 63.5039Z" fill="white"/>
<path d="M100.019 81.7512V90.9704C100.019 91.1596 99.9731 91.3246 99.7935 91.3246H70.707C70.5275 91.3246 70.4207 91.1596 70.4207 90.9704V81.7512C70.4207 81.6032 70.3843 81.4552 70.3916 81.3096C70.4829 79.1998 71.3134 77.1894 72.7377 75.6301C72.7789 75.584 72.808 75.5404 72.8517 75.4991C73.5338 74.7834 74.335 74.1916 75.2196 73.7499L75.3772 73.6698C75.6231 73.5566 75.873 73.4547 76.1269 73.3641C76.1827 73.3423 76.2386 73.3229 76.2968 73.3059C76.526 73.2279 76.7592 73.1623 76.9955 73.1094C77.2834 73.386 77.5842 73.6472 77.8979 73.893C78.6961 74.5186 79.5689 75.0426 80.4963 75.453C80.671 75.5282 80.8457 75.601 81.0229 75.6689C81.6998 75.9322 82.3999 76.1312 83.1141 76.2633C84.6213 76.5548 86.1736 76.5184 87.6655 76.1566C87.765 76.1347 87.8644 76.0401 87.9614 76.0401H88.403C88.7888 76.0401 89.1672 75.7975 89.5432 75.6471C89.6912 75.5888 89.8392 75.55 89.9872 75.4845C90.712 75.1849 91.3993 74.8014 92.0349 74.3419C92.1052 74.3419 92.1756 74.2133 92.246 74.1599C92.672 73.84 93.0772 73.4931 93.459 73.1215C97.1103 73.9731 99.8421 77.2993 100.031 81.3169C100.036 81.4625 100.019 81.6032 100.019 81.7512Z" fill="white"/>
<path d="M60.3604 51.5547H59.8436C59.0196 51.5547 58.3516 52.2227 58.3516 53.0467V65.3835C58.3516 66.2075 59.0196 66.8755 59.8436 66.8755H60.3604C61.1844 66.8755 61.8524 66.2075 61.8524 65.3835V53.0467C61.8524 52.2227 61.1844 51.5547 60.3604 51.5547Z" fill="white"/>
<path d="M58.8774 63.8674L58.6008 64.2146C58.0748 64.8749 58.1837 65.8365 58.844 66.3625L68.4251 73.9946C69.0854 74.5205 70.047 74.4117 70.573 73.7514L70.8496 73.4042C71.3755 72.7439 71.2666 71.7823 70.6064 71.2563L61.0252 63.6242C60.3649 63.0983 59.4033 63.2071 58.8774 63.8674Z" fill="white"/>
<path d="M61.0883 64.1717L60.8117 63.8244C60.2857 63.1641 59.3241 63.0553 58.6639 63.5812L49.0827 71.2134C48.4224 71.7393 48.3135 72.7009 48.8395 73.3611L49.1161 73.7084C49.6421 74.3687 50.6037 74.4776 51.2639 73.9516L60.8451 66.3195C61.5054 65.7936 61.6142 64.8319 61.0883 64.1717Z" fill="white"/>
</g>
<defs>
<clipPath id="clip0_5136_166750">
<rect width="120" height="120" fill="white"/>
</clipPath>
</defs>
</svg>
