<svg width="120" height="120" viewBox="0 0 120 120" fill="none" xmlns="http://www.w3.org/2000/svg">
<g clip-path="url(#clip0_5136_166732)">
<path d="M60 120C93.1371 120 120 93.1371 120 60C120 26.8629 93.1371 0 60 0C26.8629 0 0 26.8629 0 60C0 93.1371 26.8629 120 60 120Z" fill="#A7CB19"/>
<path d="M42.1993 21.2344C37.6379 21.2344 33.179 22.587 29.3864 25.1211C25.5938 27.6553 22.6378 31.2571 20.8923 35.4713C19.1467 39.6854 18.69 44.3225 19.5799 48.7962C20.4697 53.2699 22.6662 57.3793 25.8916 60.6046C29.117 63.83 33.2263 66.0265 37.7 66.9163C42.1737 67.8062 46.8108 67.3495 51.0249 65.604C55.2391 63.8584 58.841 60.9024 61.3751 57.1098C63.9092 53.3172 65.2618 48.8583 65.2618 44.2969C65.2618 38.1803 62.832 32.3143 58.507 27.9892C54.1819 23.6642 48.3158 21.2344 42.1993 21.2344ZM42.1993 64.2565C38.2516 64.2565 34.3927 63.0859 31.1103 60.8927C27.828 58.6995 25.2697 55.5822 23.759 51.9351C22.2483 48.288 21.8531 44.2748 22.6232 40.403C23.3934 36.5312 25.2944 32.9748 28.0858 30.1834C30.8771 27.392 34.4336 25.491 38.3054 24.7209C42.1771 23.9507 46.1903 24.346 49.8375 25.8567C53.4846 27.3674 56.6019 29.9257 58.7951 33.208C60.9882 36.4903 62.1588 40.3493 62.1588 44.2969C62.1598 46.9187 61.6442 49.5149 60.6416 51.9374C59.6389 54.3598 58.1689 56.561 56.3154 58.4152C54.4619 60.2694 52.2612 61.7402 49.8391 62.7438C47.4171 63.7473 44.821 64.2638 42.1993 64.2638V64.2565Z" fill="white"/>
<path d="M55.1133 61.768L60.0456 57.3477L95.4909 86.4925L88.5668 93.5233L55.1133 61.768Z" fill="white"/>
</g>
<defs>
<clipPath id="clip0_5136_166732">
<rect width="120" height="120" fill="white"/>
</clipPath>
</defs>
</svg>
