<svg width="120" height="90" viewBox="0 0 120 90" fill="none" xmlns="http://www.w3.org/2000/svg">
<path fill-rule="evenodd" clip-rule="evenodd" d="M9.81391 51.9H1.64404V4.16667L9.81391 0V51.9ZM62.7949 24.7C64.8379 21.9451 65.8828 18.5609 65.7538 15.1167C65.8792 12.8035 65.4391 10.4947 64.4726 8.39549C63.5062 6.29623 62.0434 4.47149 60.2141 3.08334C57.4447 1.09492 54.139 0.0184377 50.7456 0H22.0278V24.1833L30.247 19.9833V10.8167C30.2513 10.2361 30.4818 9.68079 30.8883 9.2718C31.2947 8.86281 31.8442 8.63332 32.4168 8.63332H50.0387C51.5144 8.6526 52.9616 9.04808 54.247 9.78333C55.0964 10.377 55.7722 11.1919 56.2033 12.1422C56.6343 13.0925 56.8046 14.1431 56.6963 15.1833C56.8082 16.2239 56.6395 17.2758 56.2082 18.2267C55.7768 19.1778 55.099 19.9922 54.247 20.5833C52.9651 21.3291 51.5166 21.7307 50.0387 21.75H35.4908C35.0342 21.7488 34.58 21.8162 34.1429 21.95L22.0278 28.15V36.6667L35.7374 29.6167H52.8168C54.3117 29.6354 55.775 30.0552 57.0579 30.8333C57.9872 31.4457 58.7488 32.2863 59.2718 33.277C59.7949 34.2677 60.0625 35.3764 60.0497 36.5C60.1196 37.6127 59.8753 38.7226 59.3455 39.6997C58.8156 40.6767 58.0221 41.4804 57.0579 42.0167C55.775 42.7948 54.3117 43.2146 52.8168 43.2333H32.3182C31.7412 43.2202 31.1927 42.9763 30.7924 42.5548C30.3921 42.1333 30.1724 41.5684 30.1812 40.9833V36.4333L21.962 40.6333V51.8833H53.1949C56.6074 51.8727 59.9347 50.8024 62.7292 48.8167C64.5539 47.4281 66.0137 45.6056 66.9798 43.5101C67.9458 41.4144 68.3885 39.11 68.2689 36.8C68.3954 34.4839 67.963 32.1714 67.0092 30.063C66.0553 27.9545 64.6088 26.1137 62.7949 24.7ZM78.9043 51.9H87.1235V32.5L92.6797 29.65H110.548V21.75H92.3344C91.8832 21.7487 91.4344 21.8161 91.003 21.95L87.1235 23.9833V10.65C87.1235 10.1152 87.3331 9.6022 87.7061 9.22399C88.0791 8.8458 88.585 8.63332 89.1125 8.63332H119.688V0H78.9043V51.9Z" fill="white"/>
<path fill-rule="evenodd" clip-rule="evenodd" d="M7.85674 73.806L5.73319 73.1592C3.58322 72.4875 3.0789 71.7164 3.0789 69.9751C3.0789 68.2338 4.43261 67.189 6.7684 67.189C8.52631 67.1758 10.2659 67.5239 11.8646 68.2089V66.0945C10.3179 65.3407 8.59046 64.9723 6.8481 65.0248C2.57458 65.0248 0.398208 67.189 0.398208 70.1989C0.312993 71.4225 0.712983 72.6323 1.52122 73.5964C2.32947 74.5605 3.4891 75.2109 4.77768 75.4229L6.90108 76.0696C9.29 76.8159 10.1394 77.587 10.1394 79.4278C10.1394 81.2687 8.81225 82.7114 5.83946 82.7114C3.82655 82.7697 1.82693 82.3864 0 81.5921V83.7064C1.80635 84.595 3.82671 85.0319 5.86603 84.9751C10.6703 84.9751 12.7405 82.7114 12.7405 79.3532C12.7405 75.995 10.8561 74.7512 7.85674 73.806ZM15.7397 65H18.394V67.5124H15.7397V65ZM18.3674 70.3234H15.7663V84.4777H18.3674V70.3234ZM24.7906 71.5423C26.3023 70.5985 28.0709 70.0805 29.8868 70.0497C32.8597 70.0497 34.2664 71.2189 34.3991 73.9552V84.4279H31.7448V74.4776C31.7448 72.8358 31.1875 72.1641 28.7986 72.1641C27.4211 72.2311 26.0698 72.5435 24.8172 73.0845V84.5025H22.1629V70.3233H24.6314V71.5423H24.7906ZM43.3178 70.0497C39.9468 70.0497 37.5315 71.7412 37.5315 74.7263V74.9999C37.4931 75.6912 37.6465 76.3799 37.9768 76.999C38.3072 77.618 38.8029 78.1463 39.4159 78.5323C38.9127 78.8227 38.4927 79.2237 38.1921 79.7004C37.8915 80.1772 37.7194 80.7155 37.6907 81.2687C37.6873 81.7079 37.8352 82.1365 38.1128 82.4905C38.3901 82.8446 38.782 83.1053 39.2301 83.2338C38.4363 83.3779 37.717 83.7675 37.1875 84.3403C36.6581 84.9132 36.3492 85.636 36.3104 86.3931C36.3104 88.5821 38.5401 90 43.1586 90C48.3079 90 50.4313 87.8358 50.4313 85.2487C50.4313 82.6617 48.4671 81.5921 45.7066 81.5921H41.619C40.6635 81.5921 40.2122 81.1442 40.2122 80.3731C40.2428 79.9159 40.4617 79.4879 40.8228 79.179C41.6825 79.4252 42.5783 79.5428 43.4771 79.5273C46.6622 79.5273 49.2102 78.0348 49.2102 74.9751V74.6766C49.2379 74.225 49.1701 73.7728 49.0107 73.3459C48.8512 72.919 48.6034 72.5258 48.2813 72.189H50.9356V70.3233H45.4943C44.7823 70.1542 44.052 70.0624 43.3178 70.0497ZM40.9554 83.8309H45.2288C47.1665 83.8309 47.8831 84.3532 47.8831 85.6219C47.8831 86.8905 46.6622 88.1095 43.2381 88.1095C40.4246 88.1095 39.2037 87.4378 39.2037 86.1443C39.1755 85.6302 39.3331 85.1223 39.651 84.7025C39.9688 84.2827 40.4284 83.9756 40.9554 83.8309ZM46.4498 74.5771V74.9999C46.4498 76.7413 45.2819 77.4875 43.2912 77.4875C41.3005 77.4875 40.1326 76.6417 40.1326 74.8507V74.4278C40.1326 72.786 41.274 71.9403 43.2912 71.9403C45.3085 71.9403 46.4498 72.7363 46.4498 74.5771ZM52.8996 70.8209C54.3805 70.2857 55.9577 70.0239 57.5446 70.0498C60.9951 70.0498 62.8531 71.393 62.8531 74.1294V84.5026H60.8093L60.5439 83.3085H60.3847C59.8826 83.8126 59.2675 84.2057 58.5835 84.4595C57.8995 84.7134 57.1639 84.8216 56.4298 84.7762C55.8286 84.8541 55.2166 84.8064 54.6374 84.6366C54.0584 84.4667 53.5265 84.1789 53.0801 83.7937C52.6336 83.4086 52.2835 82.9356 52.0549 82.4088C51.8265 81.8819 51.725 81.3142 51.7583 80.7463C51.7583 78.2836 53.457 76.9652 56.2971 76.617L60.1989 76.1692V74.8259C60.1989 72.6866 59.1637 72.1642 56.5094 72.1642C55.2947 72.1788 54.0848 72.3123 52.8996 72.5622V70.8209ZM56.9871 82.8857C58.1411 82.9206 59.2735 82.5873 60.1989 81.9404V78.01L56.9871 78.209C55.2088 78.5075 54.3328 79.204 54.3328 80.6966C54.3328 82.1891 55.368 82.8857 56.9871 82.8857ZM73.4705 70.0498C71.8835 70.0086 70.335 70.5129 69.1174 71.4677H68.9581V70.3234H66.4897V89.8757H69.144V83.8558C70.2882 84.4769 71.5909 84.795 72.913 84.7762C77.0802 84.7762 79.7345 82.5871 79.7345 77.3135V76.9155C79.6814 71.7911 76.7617 70.0498 73.4705 70.0498ZM76.9741 77.7364C76.9741 81.4428 75.3551 82.7115 72.6211 82.7115C71.3566 82.7428 70.1134 82.4037 69.0642 81.7413V73.0846C70.1746 72.45 71.4535 72.1223 72.7537 72.1393C75.408 72.1393 76.9741 73.2836 76.9741 77.1145V77.7364ZM85.6694 70.5772C86.5685 70.2123 87.5407 70.0324 88.5202 70.0498C92.8467 70.0498 95.4215 72.7115 95.4215 77.1642V77.5871C95.5394 78.4987 95.4472 79.4233 95.1511 80.2986C94.8551 81.1739 94.3621 81.9795 93.7053 82.6609C93.0487 83.3424 92.2436 83.8839 91.3446 84.2488C90.4455 84.6137 89.4733 84.7935 88.4938 84.7762C84.2468 84.7762 81.5926 82.1394 81.5926 77.7115V77.2389C81.4746 76.3273 81.5668 75.4027 81.8629 74.5274C82.1589 73.652 82.6519 72.8465 83.3087 72.165C83.9653 71.4835 84.7704 70.9421 85.6694 70.5772ZM88.5468 82.8359C91.1745 82.8359 92.7406 81.0449 92.7406 77.8607V77.0896C92.7406 73.3334 91.1215 72.1145 88.4672 72.1145C85.813 72.1145 84.2734 73.9304 84.2734 77.0896V77.8607C84.2734 81.6419 85.9191 82.8359 88.5468 82.8359ZM100.81 71.9154V70.3234H98.3145V84.5026H100.969V73.4577C102.135 72.7362 103.5 72.3473 104.897 72.3383H106.038V70.1742C105.924 70.1604 105.809 70.1516 105.693 70.1479C105.489 70.1411 105.285 70.1499 105.083 70.1742C104.28 70.1631 103.483 70.3127 102.746 70.613C102.009 70.9132 101.349 71.3572 100.81 71.9154ZM107.206 77.2139C107.206 72.2636 110.365 70.0497 113.869 70.0497C118.009 70.0497 120 72.2885 120 76.7413V78.1094H109.887C110.073 81.4925 111.825 82.6866 114.824 82.6866C116.474 82.7193 118.105 82.3416 119.549 81.5921V83.3831C118.045 84.351 116.249 84.8394 114.426 84.7761C109.648 84.7761 107.206 82.0149 107.206 77.6119V77.2139ZM113.736 72.0149C112.064 72.0149 110.126 72.9104 109.887 76.1691H117.24C117.24 73.184 116.045 72.0149 113.736 72.0149Z" fill="white"/>
</svg>
