<svg width="35" height="35" viewBox="0 0 35 35" fill="none" xmlns="http://www.w3.org/2000/svg">
<circle cx="17.5" cy="17.5" r="16.5" stroke="white" stroke-width="2"/>
<path d="M14.06 23.39H11.06V14.39H14.06V23.39ZM12.56 13.13C12.1463 13.13 11.7495 12.9656 11.4569 12.6731C11.1644 12.3805 11 11.9837 11 11.57C11 11.1563 11.1644 10.7595 11.4569 10.4669C11.7495 10.1744 12.1463 10.01 12.56 10.01C12.7797 9.98508 13.0022 10.0069 13.2129 10.0739C13.4236 10.1409 13.6177 10.2517 13.7827 10.399C13.9476 10.5462 14.0795 10.7267 14.1699 10.9285C14.2602 11.1303 14.3069 11.3489 14.3069 11.57C14.3069 11.7911 14.2602 12.0097 14.1699 12.2115C14.0795 12.4133 13.9476 12.5938 13.7827 12.741C13.6177 12.8883 13.4236 12.9991 13.2129 13.0661C13.0022 13.1331 12.7797 13.1549 12.56 13.13ZM24.88 23.39H21.88V18.56C21.88 17.35 21.45 16.56 20.36 16.56C20.0227 16.5625 19.6942 16.6683 19.4188 16.8632C19.1435 17.0581 18.9345 17.3327 18.82 17.65C18.7417 17.885 18.7078 18.1326 18.72 18.38V23.38H15.72C15.72 23.38 15.72 15.2 15.72 14.38H18.72V15.65C18.9925 15.1771 19.3889 14.7875 19.8664 14.5232C20.344 14.2589 20.8846 14.1299 21.43 14.15C23.43 14.15 24.88 15.44 24.88 18.21V23.39Z" fill="white"/>
</svg>
