<svg width="35" height="35" viewBox="0 0 35 35" fill="none" xmlns="http://www.w3.org/2000/svg">
<path d="M23.34 10.46C23.1027 10.46 22.8707 10.5304 22.6733 10.6622C22.476 10.7941 22.3222 10.9815 22.2313 11.2008C22.1405 11.4201 22.1168 11.6613 22.1631 11.8941C22.2094 12.1269 22.3236 12.3407 22.4915 12.5085C22.6593 12.6764 22.8731 12.7906 23.1059 12.8369C23.3387 12.8832 23.5799 12.8595 23.7992 12.7687C24.0185 12.6778 24.2059 12.524 24.3378 12.3267C24.4696 12.1293 24.54 11.8973 24.54 11.66C24.54 11.3417 24.4136 11.0365 24.1885 10.8115C23.9635 10.5864 23.6583 10.46 23.34 10.46ZM27.94 12.88C27.9206 12.0503 27.7652 11.2294 27.48 10.45C27.2257 9.78313 26.83 9.17928 26.32 8.68C25.8248 8.16743 25.2196 7.77418 24.55 7.53C23.7727 7.23616 22.9508 7.07721 22.12 7.06C21.06 7 20.72 7 18 7C15.28 7 14.94 7 13.88 7.06C13.0492 7.07721 12.2273 7.23616 11.45 7.53C10.7817 7.77665 10.1769 8.16956 9.68 8.68C9.16743 9.17518 8.77418 9.78044 8.53 10.45C8.23616 11.2273 8.07721 12.0492 8.06 12.88C8 13.94 8 14.28 8 17C8 19.72 8 20.06 8.06 21.12C8.07721 21.9508 8.23616 22.7727 8.53 23.55C8.77418 24.2196 9.16743 24.8248 9.68 25.32C10.1769 25.8304 10.7817 26.2234 11.45 26.47C12.2273 26.7638 13.0492 26.9228 13.88 26.94C14.94 27 15.28 27 18 27C20.72 27 21.06 27 22.12 26.94C22.9508 26.9228 23.7727 26.7638 24.55 26.47C25.2196 26.2258 25.8248 25.8326 26.32 25.32C26.8322 24.8226 27.2283 24.2182 27.48 23.55C27.7652 22.7706 27.9206 21.9497 27.94 21.12C27.94 20.06 28 19.72 28 17C28 14.28 28 13.94 27.94 12.88ZM26.14 21C26.1327 21.6348 26.0178 22.2637 25.8 22.86C25.6403 23.2952 25.3839 23.6884 25.05 24.01C24.7256 24.3405 24.3332 24.5964 23.9 24.76C23.3037 24.9778 22.6748 25.0927 22.04 25.1C21.04 25.15 20.67 25.16 18.04 25.16C15.41 25.16 15.04 25.16 14.04 25.1C13.3809 25.1123 12.7246 25.0109 12.1 24.8C11.6858 24.6281 11.3114 24.3728 11 24.05C10.6681 23.7287 10.4148 23.3352 10.26 22.9C10.0159 22.2952 9.88044 21.6519 9.86 21C9.86 20 9.8 19.63 9.8 17C9.8 14.37 9.8 14 9.86 13C9.86448 12.3511 9.98295 11.7079 10.21 11.1C10.386 10.6779 10.6563 10.3017 11 10C11.3038 9.65617 11.6793 9.3831 12.1 9.2C12.7096 8.98004 13.352 8.86508 14 8.86C15 8.86 15.37 8.8 18 8.8C20.63 8.8 21 8.8 22 8.86C22.6348 8.86728 23.2637 8.98225 23.86 9.2C24.3144 9.36865 24.7223 9.64285 25.05 10C25.3777 10.3072 25.6338 10.6827 25.8 11.1C26.0223 11.7089 26.1373 12.3518 26.14 13C26.19 14 26.2 14.37 26.2 17C26.2 19.63 26.19 20 26.14 21ZM18 11.87C16.9858 11.872 15.995 12.1745 15.1527 12.7394C14.3103 13.3043 13.6544 14.1062 13.2676 15.0438C12.8809 15.9813 12.7807 17.0125 12.9798 18.0069C13.1789 19.0014 13.6682 19.9145 14.3861 20.631C15.1039 21.3474 16.018 21.835 17.0129 22.0321C18.0077 22.2293 19.0387 22.1271 19.9755 21.7385C20.9123 21.35 21.7129 20.6924 22.2761 19.849C22.8394 19.0056 23.14 18.0142 23.14 17C23.1413 16.3251 23.0092 15.6566 22.7512 15.033C22.4933 14.4093 22.1146 13.8428 21.6369 13.3661C21.1592 12.8893 20.5919 12.5117 19.9678 12.2549C19.3436 11.9982 18.6749 11.8674 18 11.87ZM18 20.33C17.3414 20.33 16.6976 20.1347 16.15 19.7688C15.6023 19.4029 15.1755 18.8828 14.9235 18.2743C14.6714 17.6659 14.6055 16.9963 14.734 16.3503C14.8625 15.7044 15.1796 15.111 15.6453 14.6453C16.111 14.1796 16.7044 13.8625 17.3503 13.734C17.9963 13.6055 18.6659 13.6714 19.2743 13.9235C19.8828 14.1755 20.4029 14.6023 20.7688 15.15C21.1347 15.6976 21.33 16.3414 21.33 17C21.33 17.4373 21.2439 17.8703 21.0765 18.2743C20.9092 18.6784 20.6639 19.0454 20.3547 19.3547C20.0454 19.6639 19.6784 19.9092 19.2743 20.0765C18.8703 20.2439 18.4373 20.33 18 20.33Z" fill="white"/>
<circle cx="17.5" cy="17.5" r="16.5" stroke="white" stroke-width="2"/>
</svg>
