<svg width="50" height="33" viewBox="0 0 50 33" fill="none" xmlns="http://www.w3.org/2000/svg">
<path d="M16.375 0.3125V2.875C12.7083 4.79167 10.0833 6.79167 8.5 8.875C6.91667 10.9583 6.125 13.2292 6.125 15.6875C6.125 17.1458 6.33333 18.1458 6.75 18.6875C7.125 19.2708 7.58333 19.5625 8.125 19.5625C8.66667 19.5625 9.39583 19.4167 10.3125 19.125C11.2292 18.7917 12.0625 18.625 12.8125 18.625C14.5208 18.625 16 19.2708 17.25 20.5625C18.5417 21.8125 19.1875 23.3542 19.1875 25.1875C19.1875 27.1875 18.4167 28.9167 16.875 30.375C15.3333 31.7917 13.4167 32.5 11.125 32.5C8.33333 32.5 5.8125 31.2917 3.5625 28.875C1.3125 26.4583 0.1875 23.4792 0.1875 19.9375C0.1875 15.7708 1.5625 11.8958 4.3125 8.3125C7.10417 4.6875 11.125 2.02083 16.375 0.3125ZM46.1875 0.5V2.875C41.9792 5.29167 39.2083 7.45833 37.875 9.375C36.5417 11.2917 35.875 13.5417 35.875 16.125C35.875 17.2917 36.1042 18.1667 36.5625 18.75C37.0208 19.3333 37.5 19.625 38 19.625C38.4583 19.625 39.1458 19.4583 40.0625 19.125C40.9792 18.7917 41.8958 18.625 42.8125 18.625C44.5208 18.625 46 19.25 47.25 20.5C48.5417 21.7083 49.1875 23.2083 49.1875 25C49.1875 27.0417 48.375 28.8125 46.75 30.3125C45.1667 31.8125 43.2083 32.5625 40.875 32.5625C38.125 32.5625 35.6458 31.375 33.4375 29C31.2292 26.625 30.125 23.6667 30.125 20.125C30.125 15.75 31.5208 11.7708 34.3125 8.1875C37.1042 4.5625 41.0625 2 46.1875 0.5Z" fill="#A7CB19"/>
</svg>
