<svg width="120" height="90" viewBox="0 0 120 90" fill="none" xmlns="http://www.w3.org/2000/svg">
<path fill-rule="evenodd" clip-rule="evenodd" d="M9.81391 51.9H1.64404V4.16667L9.81391 0V51.9ZM62.7949 24.7C64.8379 21.9451 65.8828 18.5609 65.7538 15.1167C65.8792 12.8035 65.4391 10.4947 64.4726 8.39549C63.5062 6.29623 62.0434 4.47149 60.2141 3.08334C57.4447 1.09492 54.139 0.0184377 50.7456 0H22.0278V24.1833L30.247 19.9833V10.8167C30.2513 10.2361 30.4818 9.68079 30.8883 9.2718C31.2947 8.86281 31.8442 8.63332 32.4168 8.63332H50.0387C51.5144 8.6526 52.9616 9.04808 54.247 9.78333C55.0964 10.377 55.7722 11.1919 56.2033 12.1422C56.6343 13.0925 56.8046 14.1431 56.6963 15.1833C56.8082 16.2239 56.6395 17.2758 56.2082 18.2267C55.7768 19.1778 55.099 19.9922 54.247 20.5833C52.9651 21.3291 51.5166 21.7307 50.0387 21.75H35.4908C35.0342 21.7488 34.58 21.8162 34.1429 21.95L22.0278 28.15V36.6667L35.7374 29.6167H52.8168C54.3117 29.6354 55.775 30.0552 57.0579 30.8333C57.9872 31.4457 58.7488 32.2863 59.2718 33.277C59.7949 34.2677 60.0625 35.3764 60.0497 36.5C60.1196 37.6127 59.8753 38.7226 59.3455 39.6997C58.8156 40.6767 58.0221 41.4804 57.0579 42.0167C55.775 42.7948 54.3117 43.2146 52.8168 43.2333H32.3182C31.7412 43.2202 31.1927 42.9763 30.7924 42.5548C30.3921 42.1333 30.1724 41.5684 30.1812 40.9833V36.4333L21.962 40.6333V51.8833H53.1949C56.6074 51.8727 59.9347 50.8024 62.7292 48.8167C64.5539 47.4281 66.0137 45.6056 66.9798 43.5101C67.9458 41.4144 68.3885 39.11 68.2689 36.8C68.3954 34.4839 67.963 32.1714 67.0092 30.063C66.0553 27.9545 64.6088 26.1137 62.7949 24.7ZM78.9043 51.9H87.1235V32.5L92.6797 29.65H110.548V21.75H92.3344C91.8832 21.7487 91.4344 21.8161 91.003 21.95L87.1235 23.9833V10.65C87.1235 10.1152 87.3331 9.6022 87.7061 9.22399C88.0791 8.8458 88.585 8.63332 89.1125 8.63332H119.688V0H78.9043V51.9Z" fill="white"/>
</svg>
