<svg width="24" height="25" viewBox="0 0 24 25" fill="none" xmlns="http://www.w3.org/2000/svg">
<g clip-path="url(#clip0_5999_103778)">
<path d="M10.5 9.15078C10.5 8.95125 10.421 8.75989 10.2803 8.61879C10.1397 8.4777 9.94891 8.39844 9.75 8.39844C9.55109 8.39844 9.36032 8.4777 9.21967 8.61879C9.07902 8.75989 9 8.95125 9 9.15078V16.6742C9 16.8738 9.07902 17.0651 9.21967 17.2062C9.36032 17.3473 9.55109 17.4266 9.75 17.4266C9.94891 17.4266 10.1397 17.3473 10.2803 17.2062C10.421 17.0651 10.5 16.8738 10.5 16.6742V9.15078ZM15 9.15078C15 8.95125 14.921 8.75989 14.7803 8.61879C14.6397 8.4777 14.4489 8.39844 14.25 8.39844C14.0511 8.39844 13.8603 8.4777 13.7197 8.61879C13.579 8.75989 13.5 8.95125 13.5 9.15078V16.6742C13.5 16.8738 13.579 17.0651 13.7197 17.2062C13.8603 17.3473 14.0511 17.4266 14.25 17.4266C14.4489 17.4266 14.6397 17.3473 14.7803 17.2062C14.921 17.0651 15 16.8738 15 16.6742V9.15078ZM12 0.875C8.8174 0.875 5.76516 2.14323 3.51472 4.4007C1.26428 6.65817 0 9.71996 0 12.9125C0 16.105 1.26428 19.1668 3.51472 21.4243C5.76516 23.6818 8.8174 24.95 12 24.95C15.1826 24.95 18.2348 23.6818 20.4853 21.4243C22.7357 19.1668 24 16.105 24 12.9125C24 9.71996 22.7357 6.65817 20.4853 4.4007C18.2348 2.14323 15.1826 0.875 12 0.875ZM1.5 12.9125C1.5 11.5293 1.77159 10.1597 2.29926 8.88177C2.82694 7.60387 3.60036 6.44274 4.57538 5.46468C5.55039 4.48661 6.70791 3.71077 7.98182 3.18145C9.25574 2.65213 10.6211 2.37969 12 2.37969C13.3789 2.37969 14.7443 2.65213 16.0182 3.18145C17.2921 3.71077 18.4496 4.48661 19.4246 5.46468C20.3996 6.44274 21.1731 7.60387 21.7007 8.88177C22.2284 10.1597 22.5 11.5293 22.5 12.9125C22.5 15.706 21.3938 18.385 19.4246 20.3603C17.4555 22.3356 14.7848 23.4453 12 23.4453C9.21523 23.4453 6.54451 22.3356 4.57538 20.3603C2.60625 18.385 1.5 15.706 1.5 12.9125Z" fill="#A7CB19"/>
</g>
<defs>
<clipPath id="clip0_5999_103778">
<rect width="24" height="24.075" fill="white" transform="translate(0 0.875)"/>
</clipPath>
</defs>
</svg>
