<svg width="37" height="26" viewBox="0 0 37 26" fill="none" xmlns="http://www.w3.org/2000/svg">
<path d="M2.39062 25.1719V23.2031C5.54688 21.4219 7.60938 19.8125 8.57812 18.375C9.57812 16.9063 10.0781 15.2188 10.0781 13.3125C10.0781 12.4375 9.92188 11.7812 9.60938 11.3438C9.26562 10.9063 8.89062 10.6875 8.48438 10.6875C8.17188 10.6875 7.67188 10.8125 6.98438 11.0625C6.29688 11.3125 5.60938 11.4375 4.92188 11.4375C3.60938 11.4375 2.48438 10.9688 1.54688 10.0312C0.609375 9.09375 0.140625 7.95313 0.140625 6.60938C0.140625 5.10938 0.734375 3.79688 1.92188 2.67188C3.14062 1.54688 4.60938 0.984375 6.32812 0.984375C8.39062 0.984375 10.25 1.875 11.9062 3.65625C13.5938 5.4375 14.4375 7.6875 14.4375 10.4062C14.4375 13.6875 13.375 16.6875 11.25 19.4062C9.15625 22.125 6.20312 24.0469 2.39062 25.1719ZM24.75 25.1719V23.2031C27.4688 21.7969 29.4219 20.3125 30.6094 18.75C31.8281 17.1562 32.4375 15.4375 32.4375 13.5938C32.4375 12.5 32.2812 11.7344 31.9688 11.2969C31.6562 10.8906 31.3125 10.6875 30.9375 10.6875C30.5312 10.6875 29.9844 10.8125 29.2969 11.0625C28.5781 11.3125 27.9531 11.4375 27.4219 11.4375C26.1406 11.4375 25.0156 10.9531 24.0469 9.98438C23.1094 9.01562 22.6406 7.85938 22.6406 6.51562C22.6406 5.01562 23.2188 3.71875 24.375 2.625C25.5312 1.53125 26.9531 0.984375 28.6406 0.984375C30.7656 0.984375 32.6719 1.90625 34.3594 3.75C36.0469 5.5625 36.8906 7.79687 36.8906 10.4531C36.8906 13.5781 35.8438 16.5 33.75 19.2188C31.6875 21.9062 28.6875 23.8906 24.75 25.1719Z" fill="#A7CB19"/>
</svg>
