<svg width="13" height="14" viewBox="0 0 13 14" fill="none" xmlns="http://www.w3.org/2000/svg">
<path fill-rule="evenodd" clip-rule="evenodd" d="M8.45934 8.46488H9.01691L12.5167 11.9717L11.4717 13.0167L7.96488 9.51691V8.96284L7.77201 8.76997C6.97598 9.45379 5.94148 9.86759 4.80879 9.86759C2.29094 9.86759 0.25 7.82665 0.25 5.30879C0.25 2.79094 2.29094 0.75 4.80879 0.75C7.32665 0.75 9.36759 2.79094 9.36759 5.30879C9.36759 6.44148 8.95379 7.47598 8.26647 8.27201L8.45934 8.46488ZM1.7832 5.34987C1.7832 7.04335 3.15639 8.41654 4.84987 8.41654C6.54335 8.41654 7.91654 7.04335 7.91654 5.34987C7.91654 3.65639 6.54335 2.2832 4.84987 2.2832C3.15639 2.2832 1.7832 3.65639 1.7832 5.34987Z" fill="black"/>
</svg>
