<svg width="35" height="35" viewBox="0 0 35 35" fill="none" xmlns="http://www.w3.org/2000/svg">
<path d="M26.2647 8.4268C25.98 8.18994 25.6364 8.0347 25.2704 7.97761C24.9045 7.92052 24.5299 7.96371 24.1866 8.10259L6.26566 15.3379C5.88241 15.4956 5.55618 15.7661 5.33026 16.1136C5.10434 16.461 4.98943 16.8689 5.00076 17.2832C5.0121 17.6974 5.14916 18.0985 5.39374 18.433C5.63832 18.7676 5.97886 19.0198 6.37016 19.1563L9.99516 20.417L12.0157 27.0987C12.0431 27.1879 12.083 27.2729 12.134 27.3511C12.1418 27.3631 12.1527 27.372 12.161 27.3837C12.22 27.466 12.2913 27.5388 12.3724 27.5994C12.3955 27.617 12.4175 27.6335 12.4422 27.6491C12.5371 27.7121 12.6423 27.7581 12.7529 27.7852L12.7648 27.7862L12.7715 27.7891C12.838 27.8026 12.9057 27.8095 12.9736 27.8096C12.9802 27.8096 12.986 27.8065 12.9924 27.8064C13.0949 27.8046 13.1965 27.7869 13.2935 27.754C13.3161 27.7464 13.3355 27.7335 13.3574 27.7242C13.4297 27.6942 13.4983 27.6558 13.5617 27.6096C13.6124 27.5669 13.6631 27.5242 13.7139 27.4815L16.416 24.4981L20.4463 27.6201C20.8011 27.8964 21.2379 28.0465 21.6875 28.0469C22.1587 28.0463 22.6154 27.8837 22.9809 27.5864C23.3465 27.2892 23.5987 26.8752 23.6954 26.4141L26.958 10.3975C27.032 10.037 27.0065 9.66323 26.8844 9.3161C26.7623 8.96897 26.5481 8.66158 26.2647 8.4268ZM13.3702 20.7354C13.2315 20.8735 13.1367 21.0495 13.0977 21.2413L12.7882 22.7453L12.0041 20.1522L16.0694 18.0352L13.3702 20.7354ZM21.6719 26.0391L16.9092 22.3496C16.71 22.1957 16.46 22.1224 16.2092 22.1445C15.9583 22.1666 15.725 22.2824 15.5557 22.4688L14.6903 23.424L14.9961 21.9375L22.0791 14.8545C22.2482 14.6857 22.3512 14.4619 22.3695 14.2236C22.3878 13.9854 22.3201 13.7485 22.1788 13.5558C22.0375 13.3632 21.8319 13.2275 21.5992 13.1733C21.3664 13.1192 21.122 13.1502 20.9102 13.2608L10.7449 18.5534L7.02055 17.1905L24.999 9.99807L21.6719 26.0391Z" fill="white"/>
<circle cx="17.5" cy="17.5" r="16.5" stroke="white" stroke-width="2"/>
</svg>
