<svg width="21" height="20" viewBox="0 0 21 20" fill="none" xmlns="http://www.w3.org/2000/svg">
<path d="M18.4386 10.9994C18.2186 10.9994 17.9886 10.9294 17.7686 10.8794C17.3231 10.7812 16.8853 10.6509 16.4586 10.4894C15.9947 10.3206 15.4848 10.3294 15.0269 10.514C14.5691 10.6986 14.1957 11.046 13.9786 11.4894L13.7586 11.9394C12.7846 11.3976 11.8896 10.7246 11.0986 9.93938C10.3134 9.1484 9.64046 8.25338 9.09864 7.27938L9.51864 6.99938C9.962 6.7823 10.3094 6.40891 10.494 5.95107C10.6786 5.49323 10.6874 4.98329 10.5186 4.51938C10.3599 4.0918 10.2296 3.65418 10.1286 3.20938C10.0786 2.98938 10.0386 2.75938 10.0086 2.52938C9.8872 1.825 9.51826 1.18712 8.96826 0.730619C8.41825 0.274117 7.72333 0.0289887 7.00864 0.0393798H4.00864C3.57767 0.0353333 3.15089 0.124193 2.75735 0.29991C2.36381 0.475627 2.01275 0.734076 1.72807 1.05766C1.44339 1.38125 1.23177 1.76237 1.10762 2.17509C0.983477 2.58781 0.949715 3.02244 1.00864 3.44938C1.54137 7.63876 3.45466 11.5313 6.44629 14.512C9.43791 17.4928 13.3373 19.3919 17.5286 19.9094H17.9086C18.6461 19.9105 19.358 19.6399 19.9086 19.1494C20.225 18.8664 20.4777 18.5196 20.6501 18.1317C20.8225 17.7438 20.9106 17.3238 20.9086 16.8994V13.8994C20.8964 13.2048 20.6434 12.5359 20.193 12.007C19.7425 11.4782 19.1225 11.122 18.4386 10.9994V10.9994ZM18.9386 16.9994C18.9385 17.1414 18.908 17.2817 18.8494 17.411C18.7908 17.5403 18.7053 17.6557 18.5986 17.7494C18.4872 17.8464 18.3566 17.9188 18.2153 17.9619C18.074 18.005 17.9252 18.0177 17.7786 17.9994C14.0335 17.5192 10.5549 15.8059 7.89135 13.1297C5.22783 10.4535 3.53105 6.96672 3.06864 3.21938C3.05272 3.0729 3.06667 2.92471 3.10964 2.78377C3.15261 2.64283 3.22371 2.51207 3.31864 2.39938C3.41235 2.29271 3.5277 2.20722 3.65701 2.1486C3.78633 2.08997 3.92665 2.05956 4.06864 2.05938H7.06864C7.30118 2.05421 7.52826 2.13026 7.71078 2.27445C7.8933 2.41864 8.01985 2.62195 8.06864 2.84938C8.10864 3.12271 8.15864 3.39271 8.21864 3.65938C8.33416 4.18652 8.4879 4.70456 8.67864 5.20938L7.27864 5.85938C7.15893 5.9143 7.05126 5.99233 6.96179 6.08898C6.87233 6.18562 6.80284 6.29899 6.75731 6.42257C6.71178 6.54615 6.69111 6.67751 6.69648 6.8091C6.70186 6.94069 6.73318 7.06992 6.78864 7.18938C8.22784 10.2721 10.7059 12.7502 13.7886 14.1894C14.0321 14.2894 14.3052 14.2894 14.5486 14.1894C14.6733 14.1448 14.788 14.0758 14.8858 13.9866C14.9837 13.8973 15.0628 13.7895 15.1186 13.6694L15.7386 12.2694C16.2556 12.4543 16.7832 12.6079 17.3186 12.7294C17.5853 12.7894 17.8553 12.8394 18.1286 12.8794C18.3561 12.9282 18.5594 13.0547 18.7036 13.2372C18.8478 13.4198 18.9238 13.6468 18.9186 13.8794L18.9386 16.9994Z" fill="#6B5A4D"/>
</svg>
