<svg width="40" height="40" viewBox="0 0 40 40" fill="none" xmlns="http://www.w3.org/2000/svg">
<path d="M20.0013 18.3385C21.8423 18.3385 23.3346 16.8462 23.3346 15.0052C23.3346 13.1643 21.8423 11.6719 20.0013 11.6719C18.1604 11.6719 16.668 13.1643 16.668 15.0052C16.668 16.8462 18.1604 18.3385 20.0013 18.3385Z" stroke="#464749" stroke-width="2" stroke-linecap="round" stroke-linejoin="round"/>
<path d="M19.9987 35C19.9987 35 31.6654 26.9231 31.6654 16.5385C31.6654 13.4783 30.4362 10.5434 28.2483 8.37954C26.0604 6.21566 23.0929 5 19.9987 5C16.9045 5 13.937 6.21566 11.7491 8.37954C9.56119 10.5434 8.33203 13.4783 8.33203 16.5385C8.33203 26.9231 19.9987 35 19.9987 35Z" stroke="#464749" stroke-width="2" stroke-linecap="round" stroke-linejoin="round"/>
</svg>
