<svg width="40" height="40" viewBox="0 0 40 40" fill="none" xmlns="http://www.w3.org/2000/svg">
<path d="M19.1342 33.2763L18.4271 33.9834L19.1342 33.2763ZM6.72254 20.8647L6.01543 21.5718H6.01543L6.72254 20.8647ZM20.8647 6.72254L21.5718 6.01543V6.01543L20.8647 6.72254ZM33.2763 19.1342L33.9834 18.4271L33.2763 19.1342ZM33.2763 21.4912L32.5692 20.7841L33.2763 21.4912ZM21.4912 33.2763L22.1983 33.9834L21.4912 33.2763ZM6.24123 19.5353L7.23712 19.6258L6.24123 19.5353ZM7.22332 8.73225L8.21921 8.82279L7.22332 8.73225ZM8.73225 7.22332L8.82278 8.21921H8.82278L8.73225 7.22332ZM19.5353 6.24123L19.6258 7.23712L19.5353 6.24123ZM19.8413 32.5692L7.42965 20.1576L6.01543 21.5718L18.4271 33.9834L19.8413 32.5692ZM20.1576 7.42965L32.5692 19.8413L33.9834 18.4271L21.5718 6.01543L20.1576 7.42965ZM32.5692 20.7841L20.7841 32.5692L22.1983 33.9834L33.9834 22.1983L32.5692 20.7841ZM7.23712 19.6258L8.21921 8.82279L6.22743 8.64171L5.24533 19.4447L7.23712 19.6258ZM8.82278 8.21921L19.6258 7.23712L19.4447 5.24533L8.64171 6.22743L8.82278 8.21921ZM8.21921 8.82279C8.24835 8.50229 8.50228 8.24835 8.82278 8.21921L8.64171 6.22743C7.35971 6.34397 6.34397 7.35971 6.22743 8.64171L8.21921 8.82279ZM32.5692 19.8413C32.8296 20.1016 32.8296 20.5237 32.5692 20.7841L33.9834 22.1983C35.0248 21.1569 35.0248 19.4685 33.9834 18.4271L32.5692 19.8413ZM21.5718 6.01543C21.0122 5.45582 20.2329 5.17368 19.4447 5.24533L19.6258 7.23712C19.8228 7.21921 20.0177 7.28974 20.1576 7.42965L21.5718 6.01543ZM7.42965 20.1576C7.28974 20.0177 7.21921 19.8228 7.23712 19.6258L5.24533 19.4447C5.17368 20.2329 5.45582 21.0122 6.01543 21.5718L7.42965 20.1576ZM18.4271 33.9834C19.4685 35.0248 21.1569 35.0248 22.1983 33.9834L20.7841 32.5692C20.5237 32.8296 20.1016 32.8296 19.8413 32.5692L18.4271 33.9834Z" fill="#464749"/>
<path d="M13.8319 13.8319C14.4828 13.181 15.5381 13.181 16.1889 13.8319C16.8398 14.4828 16.8398 15.5381 16.1889 16.1889C15.5381 16.8398 14.4828 16.8398 13.8319 16.1889C13.181 15.5381 13.181 14.4828 13.8319 13.8319Z" stroke="#464749" stroke-width="2" stroke-linecap="round" stroke-linejoin="round"/>
</svg>
